<svg xmlns="http://www.w3.org/2000/svg" xml:space="preserve" width="179.801" height="93.316"><path fill="#0F79BF" d="M71.238 54.025c0 1.978-.245 5.045-4.21 5.045h-4.684c-3.947 0-4.192-3.067-4.192-5.045V35.868c0-1.979.245-5.046 4.192-5.046h4.684c3.965 0 4.21 3.067 4.21 5.046v3.994h-5.665v-4.605c0-.483-.359-.927-.887-.927-.322 0-.888.2-.888.927V54.52c0 .726.565.927.888.927.528 0 .887-.442.887-.927v-6.184h-.849v-3.108h6.514zm8.499-5.568.963-14.118h.321l.981 14.118zM73.485 59.07h5.533l.51-7.505h2.664l.529 7.505h5.532l-2.944-28.249h-8.876zm16.864-3.549 5.42-21.182h-4.853v-3.518h10.647v3.51l-5.396 21.117h5.739v3.622H90.349zm19.865-9.582V34.324h.718c.625 0 1.059.523 1.059 1.414v8.791c0 .886-.434 1.411-1.059 1.411zM104.55 59.07h5.664v-9.604h3.231c3.943 0 4.191-3.067 4.191-5.045v-8.554c0-1.979-.248-5.046-4.191-5.046h-8.896zm21.643-13.974v-10.77h.734c.604 0 1.038.524 1.038 1.412v7.946c0 .888-.434 1.412-1.038 1.412zm8.157 13.974-2.775-11.018c2.001-.807 2.041-2.664 2.041-3.431v-8.755c0-1.979-.229-5.046-4.195-5.046h-8.874v28.25h5.647V48.617h.412l1.927 10.453zm10.461-4.55c0 .484-.358.929-.891.929-.318 0-.886-.203-.886-.929V35.256c0-.728.567-.927.886-.927.531 0 .891.443.891.927zm-7.422-.495c0 1.978.246 5.045 4.213 5.045h4.664c3.967 0 4.209-3.067 4.209-5.045V35.868c0-1.979-.242-5.046-4.209-5.046h-4.664c-3.967 0-4.213 3.067-4.213 5.046zm30.819-23.204h7.347V59.07h-5.646V41.353h-.209l-2.907 17.717h-4.514l-2.908-17.717h-.208V59.07h-5.646V30.821h7.344l3.664 19.854z"/><g fill="#0F79BF"><path d="M51.058 19.576c-1.805-7.874-6.316-14.275-6.924-15.321-.98 1.471-4.57 7.121-6.414 13.396-1.981 6.988-2.274 13.193-1.588 19.303.687 6.108 3.255 12.381 3.255 12.381 1.373 3.297 3.433 6.825 4.766 8.559 1.962-2.549 6.473-10.157 7.884-20.091.786-5.522.804-10.357-.979-18.227m-6.924 36.355c-.882-1.666-2.255-4.838-2.394-9.735-.039-4.736 1.864-8.787 2.413-9.635.491.849 2.138 4.375 2.334 9.211.117 4.737-1.451 8.459-2.353 10.159m6.394-22.997c-.059 3.001-.412 6.171-.882 8.065.177-3.265-.216-7.871-.981-11.465-.744-3.591-2.863-9.602-4.568-12.378-1.57 2.646-3.492 7.842-4.511 12.345-1.001 4.513-1.04 9.963-1.04 11.602-.276-1.38-.942-6.295-.746-11.238.157-4.078 1.099-8.266 1.628-10.192 2-6.436 4.255-10.549 4.668-11.201.43.652 3.274 5.714 4.746 11.039 1.47 5.322 1.764 10.418 1.686 13.423"/><path d="M47.174 59.726h-13.67v9.171c.021-.013.04-.022.04-.035 3.216-3.221 8.452-3.221 11.668 0a8.26 8.26 0 0 1 0 11.667c-.02.012-.02.021-.038.034v.007q-.03.018-.06.04c-3.196 3.19-7.413 4.786-11.61 4.786a16.42 16.42 0 0 1-11.65-4.825c-5.667-5.668-6.334-14.438-2.02-20.845a16.7 16.7 0 0 1 2.02-2.453 16.4 16.4 0 0 1 11.65-4.828v-22.06c-16.199 0-29.34 13.138-29.34 29.341 0 16.2 13.141 29.337 29.34 29.337 8.454 0 16.063-3.573 21.417-9.284V59.726z"/></g><path fill="#0F79BF" d="M58.152 69.123h117.403v19.939H58.152z"/><path fill="#FFF" d="M64.213 72.273h4.4l1.376 13.439h-2.784l-.288-3.584H65.83l-.256 3.584h-2.768zm2.593 8.385-.448-6.48-.448 6.48zm30.731-8.385h2.863l.769 8.145.656-8.145h2.895l-1.713 13.456h-3.712zm35.179 0h2.847v13.439h-2.848zm32.251 0h4.399l1.376 13.439h-2.784l-.288-3.584h-1.088l-.256 3.584h-2.767zm2.592 8.385-.447-6.48-.448 6.48z"/></svg>