<svg xmlns="http://www.w3.org/2000/svg" xml:space="preserve" id="Layer_1" width="331.5" height="88.5" x="0" y="0" version="1.1"><style>.st0{fill:#330072}.st1{fill:#ff585d}</style><path d="M9.5 88.1c-3.6 0-7.1-.9-9.5-1.9-.4-.2-.6-.6-.4-1 .5-1.1 1.4-3.4 2-4.6.2-.4.7-.6 1.1-.4 1.8.9 4.7 1.6 6.6 1.6 2.9 0 4.7-1.3 4.7-3.5C14 76 12 75 9.1 74c-4-1.5-9-3.3-9-9.5 0-5.6 4.2-9.3 11.6-9.3 3.7 0 6.7.8 9.1 1.9.4.2.5.6.4 1-.5 1-1.3 2.9-1.8 4-.2.4-.7.6-1.1.4-1.5-.7-3.8-1.4-5.5-1.4-2.8 0-4.4 1.4-4.4 3.3 0 2.4 2 3.3 4.8 4.3 4.2 1.5 9.2 3.3 9.2 9.7 0 5.9-4.4 9.7-12.9 9.7m54.6-.7c-.4 0-.8-.3-.8-.8V66.4c0-3.1-2-4.9-5.2-4.9-2 0-3.6.6-4.7 1.6v23.5c0 .4-.3.8-.8.8h-6.5c-.4 0-.8-.3-.8-.8V66c0-2.8-2.1-4.5-5.5-4.5-1.8 0-3.3.3-4.4.8v24.3c0 .4-.3.8-.8.8h-6.4c-.4 0-.8-.3-.8-.8V59.2c0-1.1.7-2.1 1.8-2.5 2.9-1 6.4-1.6 10.1-1.6 5.1 0 8.3 1.6 10.1 3.2 2-1.5 5.9-3.2 10.6-3.2 7 0 11.2 4 11.2 10.4v21.1c0 .4-.3.8-.8.8z" class="st0"/><path d="M195.1 87.4H194c-2.4 0-4.6-1.5-5.4-3.8l-9.7-26.7c-.2-.5.2-1 .7-1h7.3c.3 0 .6.2.7.6l6.9 23.1 6.8-23.1c.1-.3.4-.6.7-.6h7.3c.5 0 .9.5.7 1l-9.6 26.7c-.6 2.3-2.8 3.8-5.3 3.8m24.1-36.6c-2.5 0-4.6-1.9-4.6-4.3s2-4.3 4.6-4.3c2.5 0 4.6 1.9 4.6 4.3-.1 2.4-2.1 4.3-4.6 4.3m-4 35.8v-30c0-.4.3-.8.8-.8h6.4c.4 0 .8.3.8.8v30c0 .4-.3.8-.8.8H216c-.5 0-.8-.3-.8-.8" class="st1"/><path d="M89.6 55.2c-3.4 0-6.7.7-9.3 1.5-.4.1-.7.6-.5 1l1.6 4.2c.1.4.6.6.9.5 2-.6 4.5-1.1 6.7-1.1 3.6 0 5.7.9 5.7 4.2v1.6c-9.5.5-18.5 2.2-18.5 10.8 0 6.4 4.7 10.2 14.2 10.2 3.3 0 6.7-.5 9.2-1.3 1.6-.5 2.6-1.9 2.6-3.5V67.8c.1-10.6-5.6-12.7-12.6-12.6m5.2 26.6c-.8.4-2.8.6-4.5.6-4.2 0-6.5-1.7-6.5-4.7 0-4.7 5.2-5.3 11-5.6z" class="st0"/><path d="M162.2 55.2c-3.4 0-6.7.7-9.3 1.5-.4.1-.7.6-.5 1l1.6 4.2c.1.4.6.6.9.5 2-.6 4.5-1.1 6.7-1.1 3.6 0 5.7.9 5.7 4.2v1.6c-9.5.5-18.5 2.2-18.5 10.8 0 6.4 4.7 10.2 14.2 10.2 3.3 0 6.7-.5 9.2-1.3 1.6-.5 2.6-1.9 2.6-3.5V67.8c.1-10.6-5.6-12.7-12.6-12.6m5.2 26.6c-.8.4-2.8.6-4.5.6-4.2 0-6.5-1.7-6.5-4.7 0-4.7 5.2-5.3 11-5.6zm74.8-26.6c-3.4 0-6.7.7-9.3 1.5-.4.1-.7.6-.5 1l1.6 4.2c.1.4.6.6.9.5 2.1-.6 4.5-1.1 6.7-1.1 3.6 0 5.7.9 5.7 4.2v1.6c-9.5.5-18.5 2.2-18.5 10.8 0 6.4 4.7 10.2 14.2 10.2 3.3 0 6.7-.5 9.2-1.3 1.6-.5 2.6-1.9 2.6-3.5V67.8c.1-10.6-5.6-12.7-12.6-12.6m5.2 26.6c-.8.4-2.8.6-4.5.6-4.2 0-6.5-1.7-6.5-4.7 0-4.7 5.2-5.3 11-5.6z" class="st1"/><path d="M143.6 61.8c.4 0 .8-.3.8-.8v-4.3c0-.4-.4-.8-.8-.8h-5.1v-7.4c0-.4-.3-.8-.8-.8h-6.3c-.4 0-.8.3-.8.8V78c0 6.6 2.9 10 9 10 1.6 0 3.3-.3 4.3-.7.3-.1.5-.4.5-.7v-5c0-.5-.5-.9-.9-.8s-.9.2-1.3.2c-2 0-3.6-.9-3.6-3.5V61.9zm-18.3-5.1c0-.4-.4-.8-.8-.8H122c-7 0-12.7 5.2-12.7 12.3v18.5c0 .4.3.8.8.8h6.4c.4 0 .8-.3.8-.8V69.3c0-4.9 3.4-6.6 7.3-7.1.4 0 .7-.4.7-.8z" class="st0"/><path d="m281.9 33.3-5.3 19.4c-.4 1.4.6 2.9 2.1 3.1l17.9 2.2c.4 0 .4.6 0 .6l-18.9 1.9c-2 .2-3.7 1.6-4.2 3.6l-5.9 22.1c-.3 1 .8 1.8 1.7 1.3L314 59.2c.7-.4.7-1.4.1-1.9l-30.4-24.6c-.6-.5-1.6-.2-1.8.6" class="st1"/><path d="m317.2 54.4 5.3-19.4c.4-1.4-.6-2.9-2.1-3.1l-17.9-2.2c-.4 0-.4-.6 0-.6l18.9-1.9c2-.2 3.7-1.6 4.2-3.6l5.9-22.1c.3-1-.8-1.8-1.7-1.3l-44.7 28.3c-.7.4-.7 1.4-.1 1.9L315.4 55c.6.5 1.6.1 1.8-.6" class="st0"/></svg>