<svg xmlns="http://www.w3.org/2000/svg" xml:space="preserve" id="Слой_1" x="0" y="0" version="1.1" viewBox="0 0 398 69"><style>.st0{fill:#15255a}.st0,.st1,.st2,.st3{fill-rule:evenodd;clip-rule:evenodd}.st1{fill:#a8c9e8}.st2{fill:#82b0e3}.st3{fill:#608dd9}</style><path d="m86.3 58.6 4.6-10.7H92l4.6 10.7h-1.2l-1.2-2.8h-5.5l-1.2 2.8zm2.8-3.8h4.7l-2.4-5.7zm9.1 3.8V47.9h3.2c.4 0 .9 0 1.2.1.4.1.7.2 1.1.4.3.2.6.5.8.9s.3.8.3 1.3c0 .6-.2 1.1-.5 1.5s-.8.7-1.4.8c.7.1 1.3.4 1.7.8.4.5.7 1.1.7 1.8 0 .9-.4 1.6-1.1 2.2-.7.5-1.7.8-2.9.8h-3.1zm1-1h2c.9 0 1.6-.2 2.1-.5.6-.3.8-.9.8-1.6s-.2-1.2-.7-1.6-1.2-.5-2-.5h-2.2zm0-5.1h2.2c.6 0 1.1-.2 1.6-.5.4-.3.7-.8.7-1.4s-.2-1.1-.7-1.4-1.1-.5-1.9-.5h-1.9zm8.6 6.1V47.9h1.1v9l5.9-9h1.2v10.7h-1.1v-9.1l-5.9 9.1zm9.8 0 4.6-10.7h1.1l4.6 10.7h-1.2l-1.2-2.8H120l-1.2 2.8zm2.7-3.8h4.7l-2.4-5.7zm9.1 3.8V47.9h1.1v4.8l5.1-4.8h1.6l-5.4 4.9 5.7 5.8h-1.6l-5.4-5.7v5.7zm18.1-1.4c-1.1 1.1-2.4 1.6-4 1.6s-2.9-.5-4-1.6-1.6-2.4-1.6-4 .5-3 1.6-4c1.1-1.1 2.4-1.6 4-1.6s2.9.5 4 1.6 1.6 2.4 1.6 4-.5 3-1.6 4m-7.2-.7c.8.9 1.9 1.4 3.2 1.4s2.4-.5 3.2-1.4q1.2-1.35 1.2-3.3t-1.2-3.3c-.8-.9-1.9-1.4-3.2-1.4s-2.4.5-3.2 1.4q-1.2 1.35-1.2 3.3t1.2 3.3m11.1 2.1V47.9h1.7l3.6 8.9 3.6-8.9h1.7v10.7h-1.1v-9.3l-3.9 9.3h-.6l-3.9-9.3v9.3zm13.4 0V47.9h8v10.7h-1.1v-9.7h-5.8v9.7zm9.6 0 4.6-10.7h1.1l4.6 10.7h-1.2l-1.2-2.8h-5.5l-1.2 2.8zm2.7-3.8h4.7l-2.4-5.7zm9.1 3.8V47.9h1.1v4.6h5.8v-4.6h1.1v10.7h-1.1v-5.1h-5.8v5.1zm10.9 0V47.9h1.1v9l5.9-9h1.2v10.7h-1.1v-9.1l-5.9 9.1zm10.2 0 2.9-4.7c-.8-.2-1.5-.5-2-1s-.7-1.2-.7-2c0-1 .3-1.7 1-2.3.7-.5 1.6-.8 2.8-.8h3v10.7h-1.1v-4.6h-1.9l-2.8 4.6h-1.2zm4.2-5.6h1.8v-4.2h-1.8c-1.9 0-2.8.7-2.8 2.1 0 .7.2 1.2.7 1.6.5.3 1.2.5 2.1.5M116.2 7.1h-2c-.4 0-.8.2-1.1.5-8 8.8-18.4 20.4-26.4 29.1-.1.1-.1.2-.1.3s.2.2.3.2H106l5.5-6.2 7.1 2.9-.4 2.6c0 .2 0 .3.1.5.1.1.3.2.4.2H137l4.4-22.5c.2-1.3.5-2.5.7-3.8.2-1 .7-2.8.7-3.8zm4.6 21-4.5-1.8c-.1 0-.2-.1-.2-.2s0-.2.1-.3l7.5-8.5zm46.4-20.5c-1 1.1-2 2.1-2.9 3.2l-19 20.6c-1.1 1.2-3.4 3.6-4.9 5.3q-.15.15 0 .3c0 .1.2.2.3.2h19.8l16.9-20.8-4.7 20.1c0 .2 0 .4.1.5s.3.2.5.2h18.3l7.3-30.1h-30.4c-.6 0-1 .1-1.3.5m204-.5h-2c-.4 0-.8.2-1.1.5-8 8.8-18.4 20.4-26.4 29.1-.1.1-.1.2-.1.3s.2.2.3.2H361l5.5-6.2 7.1 2.9-.4 2.6c0 .2 0 .3.1.5.1.1.3.2.4.2H392l4.4-22.5c.2-1.3.5-2.5.7-3.8.2-1 .7-2.8.7-3.8zm4.6 21-4.5-1.8c-.1 0-.2-.1-.2-.2s0-.2.1-.3l7.5-8.5zm-109.7-21h18.4c8.3 0 13.5 6.8 11.6 15.1s-10.3 15.1-18.6 15.1h-18.4c-8.3 0-13.5-6.8-11.6-15.1 2-8.3 10.3-15.1 18.6-15.1m6.7 7.6c-3.5 0-7.4 2.9-8.5 6.4l-.7 2c-1.2 3.5.8 6.4 4.3 6.4h2.9c3.5 0 7.4-2.9 8.5-6.4l.7-2c1.2-3.5-.8-6.4-4.3-6.4zM318 7.1h18.4c7.8 0 12.8 5.9 11.8 13.5H332c.8-3.3-1.1-5.9-4.5-5.9h-2.7c-3.5 0-7.4 2.9-8.5 6.4l-.7 2c-1.2 3.5.8 6.4 4.3 6.4h2.7c3.3 0 7-2.6 8.3-5.9h16.5c-2.5 7.6-10.4 13.5-18.1 13.5H311c-8.3 0-13.5-6.8-11.6-15.1 2-8.1 10.3-14.9 18.6-14.9M217.3 23.9l1.7-7.5c.2-.7.8-1.2 1.5-1.2h5.1c3.7 0 5.4 3 3.4 6.2-2.3 3.7-7.5 3.2-11.2 3.1-.2 0-.3-.1-.4-.2-.1 0-.2-.2-.1-.4m-3.1 13.3.1-.4 1.1-5h15.5c1.9 0 3.1-.3 4.5-.8 4-1.4 6.7-3 8.4-7.1 1-3.2 1.1-5.7-.1-9.3-1.2-2.7-2.9-5.1-5.7-6.3-.8-.3-3.6-1-5.3-1.1h-31l-1.8 7.8c-.3 1.3-.6 2.4-.9 3.7l-4.2 17.9c0 .2 0 .4.1.5s.3.2.5.2h18.8z" class="st0"/><path d="m14.5 11.6-4.7.1L.5 20l.1 3.7 7.9-3z" class="st1"/><path d="m1.4 28.3 6.5-6.9-7.3 2.7z" class="st2"/><path d="M10.9 11.2h3.9l3.1-2.7zm-1.7 9.3 13-4.3-7.3-4.5zm14-4 5.2 7.2 13-6.2z" class="st3"/><path d="M12.6 32H3.1L14 35.6z" class="st1"/><path d="m1.9 31.5 10.6.1-3.9-10.3-7.2 7.5z" class="st3"/><path d="m12.9 31.5 15.2-7.7-5.4-7.3L9 21z" class="st1"/><path d="m28.6 24.3-.3 12.5h13.8v-2.6z" class="st3"/><path d="m27.8 36.8.4-12.5L13 31.9l1.5 3.9z" class="st2"/><path d="M42.3 33.8 55.8 24l-13.5-6.4L28.8 24z" class="st1"/><path d="M65.5 8 42.3 3.8 19.1 8l-3.9 3.3 7.6 4.8 19.5 1 19.5-1 7.6-4.8z" class="st2"/><path d="M69.8 11.2h3.9l-7-2.7z" class="st3"/><path d="m74.8 11.7-4.6-.1 5.9 9.1 7.9 3 .1-3.7z" class="st1"/><path d="m62.4 16.2 13 4.3-5.7-8.8zm-6.2 7.5 5.2-7.2-18.2 1zm20.5-2.3 6.6 6.9.7-4.2z" class="st3"/><path d="m72.2 31.6 10.5-.1.5-2.7-7.2-7.5z" class="st2"/><path d="M81.5 32H72l-1.4 3.6zm-24.9-8.2 15.1 7.7L75.6 21 62 16.5z" class="st1"/><path d="m56.5 24.3.3 12.5 13.3-1 1.5-3.9zM46.1 55.2 42.3 38l-3.8 17.2 3.8 6.8z" class="st3"/><path d="m70.4 36.1-9.4 12 20.7-15.7z" class="st2"/><path d="m68.9 37.3-22.4 18-3.6 6.5 16.7-12.7z" class="st3"/><path d="m46.5 54.6 9.7-17.3H42.6z" class="st2"/><path d="m56.7 37.2-9.6 17.1 22.5-18.1z" class="st1"/><path d="m23.6 48.1-9.4-12-11.3-3.7z" class="st2"/><path d="m38.1 55.3-22.4-18L25 49.1l16.7 12.7z" class="st3"/><path d="m37.5 54.3-9.6-17.1-12.9-1z" class="st2"/><path d="m28.4 37.3 9.7 17.3L42 37.3z" class="st1"/><path d="m28.4 37.3 9.7 17.3L42 37.3zm9.1 17L15 36.2l12.9 1zm.6 1 3.6 6.5L25 49.1l-9.3-11.8zm-14.5-7.2-9.4-11.9-11.3-3.8zm33.1-10.9-9.6 17.1 22.5-18.1zM46.5 54.6l-3.9-17.3h13.6zm22.4-17.3-9.3 11.8-16.7 12.7 3.6-6.5zm1.5-1.2 11.3-3.8L61 48.1zM46.1 55.2 42.3 62l-3.8-6.8L42.3 38zm-3.8 7.6-.3-.2L1.6 31.9l-.1-.1L.2 24v-.1l-.1-4c0-.1 0-.1.1-.2l9.4-8.4h.1L19 7.6h.1l23.3-4.2 23.3 4.2h.1l9.3 3.7h.1l9.4 8.4s.1.1.1.2l-.1 4v.1l-1.4 7.8v.1H83L42.6 62.6zm14.1-26H42.5v-2.6L56 24.3zm.1-12.5 15.1 7.6-1.5 3.9-13.3 1.1zm.1-.5 15.2 7.6L75.6 21 62 16.5zM81.5 32H72l-1.4 3.6zm-9.3-.4h10.5l.5-2.7-7.2-7.6zm4.5-10.2 6.5 6.9.7-4.2zm-20.5 2.3 5.3-7.1-18.3 1zm6.2-7.5 13 4.3-5.7-8.8zm12.4-4.5-4.6-.1 5.9 9.1 8 2.9.1-3.6zm-5-.5 3.8.1-7-2.7zM65.5 8 42.3 3.8 19.1 8l-3.9 3.3 7.6 4.7 19.5 1.1L61.8 16l7.6-4.7zM42.3 33.8 55.8 24l-13.5-6.4L28.8 24zm-14.5 3 .3-12.5L13 31.9l1.5 3.9zm.8-12.5-.3 12.5h13.8v-2.6zm-15.7 7.2 15.2-7.6-5.4-7.3L9 21zm-11 0h10.5L8.6 21.3l-7.2 7.5zm10.7.5 1.4 3.6L3.1 32zM1.4 28.3l6.5-6.9-7.3 2.7zm21.8-11.8 5.3 7.1 13-6.1zm-14 4 13-4.3-7.3-4.6zm1.7-9.3 3.8-.1 3.1-2.7zm3.6.4-4.6.1L.5 20l.1 3.6 8-2.9z" class="st0"/><path d="M56.4 36.8 56 24.3l-13.5 9.9v2.6z" class="st2"/></svg>