<?xml version="1.0" encoding="utf-8"?>
<!-- Generator: Adobe Illustrator 18.0.0, SVG Export Plug-In . SVG Version: 6.00 Build 0)  -->
<!DOCTYPE svg PUBLIC "-//W3C//DTD SVG 1.1//EN" "http://www.w3.org/Graphics/SVG/1.1/DTD/svg11.dtd">
<svg version="1.1" id="Layer_1" xmlns="http://www.w3.org/2000/svg" xmlns:xlink="http://www.w3.org/1999/xlink" x="0px" y="0px"
	 width="255.1px" height="44.9px" viewBox="0 0 255.1 44.9" enable-background="new 0 0 255.1 44.9" xml:space="preserve">
<g>
	<path fill="#0095D4" d="M45.4,8.9c-8.2,0-14.2,6.1-14.2,13.6v0.1c0,7.5,6,13.5,14.1,13.5c8.2,0,14.2-6.1,14.2-13.6v-0.1
		C59.5,14.9,53.5,8.9,45.4,8.9z M52.2,22.6c0,3.9-2.5,7.1-6.8,7.1c-4.1,0-6.9-3.4-6.9-7.2v-0.1c0-3.8,2.6-7.1,6.8-7.1
		C49.4,15.2,52.2,18.6,52.2,22.6L52.2,22.6z"/>
	<path fill="#0095D4" d="M151,22.3L151,22.3V3.7c0-2.1-1.7-3.7-3.7-3.7c-2.1,0-3.8,1.7-3.8,3.7v6.5c-2-1-4.3-1.6-6.7-1.6
		c-8.2,0-14.3,6.1-14.3,13.7v0.1c0,7.6,6.1,13.6,14.2,13.6c2.5,0,4.8-0.6,6.8-1.6l0.5-0.3c0.7,1.1,1.9,1.9,3.3,1.9
		c2.1,0,3.8-1.7,3.8-3.8c0,0,0-0.1,0-0.1V22.3z M143.5,23.6c-0.5,3.3-2.9,6-6.7,6c-4.1,0-6.9-3.4-6.9-7.3v-0.1
		c0-3.9,2.6-7.2,6.8-7.2c3.7,0,6.4,2.8,6.8,6.2V23.6z"/>
	<path fill="#0095D4" d="M76.3,8.7c-2.5,0-4.8,0.6-6.7,1.6V3.7c0-2.1-1.7-3.7-3.7-3.7c-2.1,0-3.7,1.7-3.7,3.7v18.5v0.1v9.8
		c0,0,0,0.1,0,0.1c0,2.1,1.7,3.8,3.8,3.8c1.4,0,2.6-0.8,3.3-1.9l0.5,0.3c2,1,4.3,1.6,6.8,1.6c8.2,0,14.2-6,14.2-13.6v-0.1
		C90.6,14.8,84.5,8.7,76.3,8.7z M83.2,22.3c0,3.9-2.8,7.3-6.9,7.3c-3.8,0-6.3-2.6-6.7-6v-2.3c0.5-3.4,3.1-6.2,6.8-6.2
		C80.7,15.1,83.2,18.4,83.2,22.3L83.2,22.3z"/>
	<path fill="#0095D4" d="M28.6,22.6v-0.1c0-7.6-6-13.6-14.2-13.6c-2.5,0-4.8,0.6-6.8,1.6L7,10.7C6.4,9.6,5.2,8.9,3.8,8.9
		C1.7,8.9,0,10.5,0,12.6c0,0,0,0.1,0,0.1v9.8v0.1v18.5c0,2.1,1.7,3.7,3.7,3.7c2.1,0,3.7-1.7,3.7-3.7v-6.5c2,1,4.3,1.6,6.7,1.6
		C22.5,36.3,28.6,30.1,28.6,22.6z M21.2,22.7c0,3.9-2.6,7.2-6.8,7.2c-3.7,0-6.4-2.8-6.8-6.2v-2.3c0.5-3.3,2.9-6,6.7-6
		C18.4,15.3,21.2,18.7,21.2,22.7L21.2,22.7z"/>
	<path fill="#0095D4" d="M204.4,25.1c0,5.8-4.7,10.6-10.6,10.6c-5.8,0-10.6-4.7-10.6-10.6c0-5.8,4.7-10.6,10.6-10.6
		C199.6,14.6,204.4,19.3,204.4,25.1"/>
	<path fill="#66ADDF" d="M229.7,25.1c0,5.8-4.7,10.6-10.6,10.6c-5.8,0-10.6-4.7-10.6-10.6c0-5.8,4.7-10.6,10.6-10.6
		C225,14.6,229.7,19.3,229.7,25.1"/>
	<path fill="#92C0E6" d="M255.1,25.1c0,5.8-4.7,10.6-10.6,10.6c-5.8,0-10.6-4.7-10.6-10.6c0-5.8,4.7-10.6,10.6-10.6
		C250.4,14.6,255.1,19.3,255.1,25.1"/>
	<path fill="#0095D4" d="M112,19.8c-0.2-2.7-2.1-4.9-5.3-4.9c-3.2,0-5.1,1.9-5.6,4.9H112z M118.3,31.3c0,1.5-1.1,2.6-3.3,3.5
		c-2.4,1-5,1.2-7.5,1.2c-4.5,0-8-1.4-10.5-3.8c-2.5-2.5-3.9-6-3.9-10c0-3.9,1.5-7.3,3.8-9.6c2.3-2.3,5.6-3.6,9.8-3.6
		c4.3,0,7.3,1.4,9.4,3.4c2.5,2.5,3.3,5.6,3.3,8.1c0,2.7-1.4,4.2-3.8,4.2h-14.4c0.7,3.4,3.1,5.3,6.8,5.3c4,0,5.5-1.8,7.5-1.8
		C117.1,28.3,118.3,29.7,118.3,31.3"/>
	<path fill="#0095D4" d="M178,19.7c-0.1-1.1-0.9-4.7-3.5-7.3c-2.3-2.4-5.4-3.9-9.6-3.9c-2.4,0-3.7,0-6,1c-2.1,0.8-3.1,1.9-3.1,3.4
		c0,1.6,1.1,3,2.7,3c1.8,0,1.8-1.3,5.6-1.3c3.1,0,5.2,1.4,6.2,4.1c-2.4-1.1-5-1.2-5-1.2s-9.1-0.8-11.1,7.2c-1,5.5,2.2,10.3,8.8,11.1
		c5.8,0.4,8.7-2,8.7-2c0.6,1,1.7,1.7,3,1.7c1.9,0,3.5-1.5,3.5-3.5C178.2,32,178.3,22.4,178,19.7z M165.8,30.9
		c-2.9,0-5.3-1.9-5.3-4.1c0-2.3,2.4-4.1,5.3-4.1c2.9,0,5.3,1.9,5.3,4.1C171.1,29,168.7,30.9,165.8,30.9z"/>
</g>
</svg>
