<svg xmlns="http://www.w3.org/2000/svg" xml:space="preserve" width="255.1" height="44.9"><path fill="#0095D4" d="M45.4 8.9c-8.2 0-14.2 6.1-14.2 13.6v.1c0 7.5 6 13.5 14.1 13.5 8.2 0 14.2-6.1 14.2-13.6v-.1c0-7.5-6-13.5-14.1-13.5m6.8 13.7c0 3.9-2.5 7.1-6.8 7.1-4.1 0-6.9-3.4-6.9-7.2v-.1c0-3.8 2.6-7.1 6.8-7.1 4.1-.1 6.9 3.3 6.9 7.3m98.8-.3V3.7c0-2.1-1.7-3.7-3.7-3.7-2.1 0-3.8 1.7-3.8 3.7v6.5c-2-1-4.3-1.6-6.7-1.6-8.2 0-14.3 6.1-14.3 13.7v.1c0 7.6 6.1 13.6 14.2 13.6 2.5 0 4.8-.6 6.8-1.6l.5-.3c.7 1.1 1.9 1.9 3.3 1.9 2.1 0 3.8-1.7 3.8-3.8v-9.9zm-7.5 1.3c-.5 3.3-2.9 6-6.7 6-4.1 0-6.9-3.4-6.9-7.3v-.1c0-3.9 2.6-7.2 6.8-7.2 3.7 0 6.4 2.8 6.8 6.2zM76.3 8.7c-2.5 0-4.8.6-6.7 1.6V3.7c0-2.1-1.7-3.7-3.7-3.7-2.1 0-3.7 1.7-3.7 3.7v28.5c0 2.1 1.7 3.8 3.8 3.8 1.4 0 2.6-.8 3.3-1.9l.5.3c2 1 4.3 1.6 6.8 1.6 8.2 0 14.2-6 14.2-13.6v-.1c-.2-7.5-6.3-13.6-14.5-13.6m6.9 13.6c0 3.9-2.8 7.3-6.9 7.3-3.8 0-6.3-2.6-6.7-6v-2.3c.5-3.4 3.1-6.2 6.8-6.2 4.3 0 6.8 3.3 6.8 7.2m-54.6.3v-.1c0-7.6-6-13.6-14.2-13.6-2.5 0-4.8.6-6.8 1.6l-.6.2c-.6-1.1-1.8-1.8-3.2-1.8-2.1 0-3.8 1.6-3.8 3.7v28.5c0 2.1 1.7 3.7 3.7 3.7 2.1 0 3.7-1.7 3.7-3.7v-6.5c2 1 4.3 1.6 6.7 1.6 8.4.1 14.5-6.1 14.5-13.6m-7.4.1c0 3.9-2.6 7.2-6.8 7.2-3.7 0-6.4-2.8-6.8-6.2v-2.3c.5-3.3 2.9-6 6.7-6 4.1-.1 6.9 3.3 6.9 7.3m183.2 2.4c0 5.8-4.7 10.6-10.6 10.6-5.8 0-10.6-4.7-10.6-10.6 0-5.8 4.7-10.6 10.6-10.6 5.8.1 10.6 4.8 10.6 10.6"/><path fill="#66ADDF" d="M229.7 25.1c0 5.8-4.7 10.6-10.6 10.6-5.8 0-10.6-4.7-10.6-10.6 0-5.8 4.7-10.6 10.6-10.6 5.9.1 10.6 4.8 10.6 10.6"/><path fill="#92C0E6" d="M255.1 25.1c0 5.8-4.7 10.6-10.6 10.6-5.8 0-10.6-4.7-10.6-10.6 0-5.8 4.7-10.6 10.6-10.6 5.9.1 10.6 4.8 10.6 10.6"/><path fill="#0095D4" d="M112 19.8c-.2-2.7-2.1-4.9-5.3-4.9s-5.1 1.9-5.6 4.9zm6.3 11.5c0 1.5-1.1 2.6-3.3 3.5-2.4 1-5 1.2-7.5 1.2-4.5 0-8-1.4-10.5-3.8-2.5-2.5-3.9-6-3.9-10 0-3.9 1.5-7.3 3.8-9.6s5.6-3.6 9.8-3.6c4.3 0 7.3 1.4 9.4 3.4 2.5 2.5 3.3 5.6 3.3 8.1 0 2.7-1.4 4.2-3.8 4.2h-14.4c.7 3.4 3.1 5.3 6.8 5.3 4 0 5.5-1.8 7.5-1.8 1.6.1 2.8 1.5 2.8 3.1M178 19.7c-.1-1.1-.9-4.7-3.5-7.3-2.3-2.4-5.4-3.9-9.6-3.9-2.4 0-3.7 0-6 1-2.1.8-3.1 1.9-3.1 3.4 0 1.6 1.1 3 2.7 3 1.8 0 1.8-1.3 5.6-1.3 3.1 0 5.2 1.4 6.2 4.1-2.4-1.1-5-1.2-5-1.2s-9.1-.8-11.1 7.2c-1 5.5 2.2 10.3 8.8 11.1 5.8.4 8.7-2 8.7-2 .6 1 1.7 1.7 3 1.7 1.9 0 3.5-1.5 3.5-3.5 0 0 .1-9.6-.2-12.3m-12.2 11.2c-2.9 0-5.3-1.9-5.3-4.1 0-2.3 2.4-4.1 5.3-4.1s5.3 1.9 5.3 4.1-2.4 4.1-5.3 4.1"/></svg>