<svg xmlns="http://www.w3.org/2000/svg" xml:space="preserve" viewBox="0 0 600 364.6"><linearGradient id="a" x1="308.31" x2="268.1" y1="264.976" y2="75.802" gradientUnits="userSpaceOnUse"><stop offset="0" style="stop-color:#fff"/><stop offset="0" style="stop-color:#bbccfd"/><stop offset="1" style="stop-color:#215af9"/></linearGradient><path d="m102.3 139 176.3 132.3 161-232z" style="fill:url(#a)"/><linearGradient id="b" x1="309.691" x2="309.691" y1="310.862" y2="187.261" gradientUnits="userSpaceOnUse"><stop offset="0" style="stop-color:#696e72"/><stop offset="1" style="stop-color:#2d3135"/></linearGradient><path d="M58.9 190.4h15.6v80.9H58.9zm38.4 0h33.8c26 0 35.3 10 35.3 28.3 0 13.3-6.6 23.1-16.5 26.3l20.4 26.2h-18.4l-18.1-23.6h-22.5v23.6h-14zm29.4 44.5c15.5 0 25.7-3 25.7-15.2 0-12.5-9.5-15-24.3-15h-16.8V235h15.4zm259.1-44.5h33.8c26 0 35.3 10 35.3 28.3 0 13.3-6.6 23.1-16.5 26.3l20.4 26.2h-18.4l-18.1-23.6h-22.5v23.6h-14zm29.4 44.5c15.5 0 25.7-3 25.7-15.2 0-12.5-9.5-15-24.3-15h-16.8V235h15.4zm-162.5-54.2 26.1 90.6h-15.6l-4.1-15.1-48.6.1-11.3 15h-18.1zm2.8 62.9-9.5-34-26 34zm46.8 27.7h61.9v-12.7h-47.7v-22.4h39.3v-12.8h-39.3v-20.1h45.8v-12.9h-60zm-236 25.3h4.2l7.4 15.7h-4l-1.2-2.6H64l-1.2 2.6h-3.9zm4.9 9.9-2.9-6.2-2.8 6.2zm10.8 5.8h3.6v-15.7H82zm10.8-15.7h7.4c4.2 0 6.6 2.1 6.6 5.8 0 2.6-1.3 4.1-2.8 4.9l3.6 5h-4.3l-3-4.3h-3.9v4.3h-3.6zm6.8 8.5c2.4 0 3.4-1 3.4-2.5 0-1.8-1.3-2.4-3.3-2.4h-3.4v4.9zm13.4 7.2h12.2v-3.6h-8.6v-12.1H113zm17.1 0h3.6v-15.7h-3.6zm23.4 0h3v-15.7H153v9.9l-9.1-9.9h-3v15.7h3.5v-9.9zm10.2 0h13.1V309h-9.5v-3h7.5v-3.2h-7.5V300h9.3v-3.4h-12.9zm32.1-11.4v-3.5c-1.5-.6-4-1.2-7-1.2-4 0-6.6 1.7-6.6 4.7s2.6 4.3 6.1 5 4.5.9 4.5 2.1c0 .8-.9 1.5-2.9 1.5-2.4 0-5.5-.5-8-1.6v3.5c1.6.8 4.3 1.4 7.5 1.4 4.4 0 7.1-1.9 7.1-5 0-2.8-1.9-4.1-5.8-5-3.4-.8-4.8-1-4.8-2.1 0-.7.7-1.1 3.3-1.1 2.2-.1 4.9.6 6.6 1.3m364.6-70.1c0 25.3-17.8 42.8-45.4 42.8s-45.4-17.4-45.4-42.8S487.4 188 515 188c27.6.1 45.4 17.5 45.4 42.8m-14.8 0c0-17.5-10.9-29.9-30.6-29.9s-30.6 12.4-30.6 29.9 10.9 29.9 30.6 29.9 30.6-12.3 30.6-29.9" style="fill:url(#b)"/></svg>