<svg xmlns="http://www.w3.org/2000/svg" xml:space="preserve" width="182" height="41"><g fill="#00529C"><path fill-rule="evenodd" d="M11.377 36.639 9.02 35.617l9.77-1.191c.17.283.341.539.54.795zm26.213 0 2.357-1.078-9.713-1.164c-.085.313-.341.568-.511.824zm-1.419.172-2.954.994-4.203-1.277-.37-.113c.142-.115.256-.229.37-.369.17-.143.312-.342.483-.484zm7.81-2.754-2.698 1.25-10.792-1.25.256-.768zm.965-.369 3.521-2.244H29.383c0 .797-.114 1.479-.369 2.074-.739 1.902-2.584 2.811-4.431 2.781-1.817-.057-3.663-.992-4.487-2.727a5 5 0 0 1-.454-2.129H.5l3.494 2.244 14.626-.766c.283 1.049.794 1.959 1.476 2.639 1.165 1.223 2.84 1.904 4.487 1.904 1.619.029 3.267-.566 4.431-1.875.625-.682 1.107-1.563 1.391-2.613zm-15.932 5.791.369.684-.369.172-.994.453-1.136-2.244a7.7 7.7 0 0 1-2.301.426 7.3 7.3 0 0 1-2.499-.342l-.966 2.16c-.313.027-.739 0-1.022-.197a.75.75 0 0 1-.34-.428l.34-.568.824-1.479c-.256-.168-.483-.281-.71-.51l.682-.822c1.164.711 2.442 1.107 3.691 1.107 1.25.029 2.499-.371 3.664-1.193l.768.227.312.115c-.113.084-.199.17-.312.256-.228.225-.426.453-.795.652zm0-11.614c.738.881 1.277 1.961 1.562 3.209h-1.221a6.7 6.7 0 0 0-.34-1.078c-.824-2.158-2.5-3.693-4.431-4.973-.255-.141-.482-.311-.738-.453.256.086.483.172.738.258 1.76.707 3.322 1.674 4.43 3.037m-3.295 8.008a2.9 2.9 0 0 0 1.165-.51l-1.932-3.834 2.017-.967-1.704-1.477-.682.315-2.925 1.332.852 1.932 1.392-.623zm-5.282.541c-.114-.086-.228-.199-.341-.285a3.6 3.6 0 0 1-.568-.596l-6.669 1.26 2.839.953zm-1.817-2.357c-.114-.254-.199-.51-.285-.768l-13.348.768 2.698 1.307z" clip-rule="evenodd"/><path d="M43.13 17.136v-2.485h-9.806V9.97h8.817V7.51h-8.817V3.253h9.292V.795H26.792v16.341Zm9.56 0V3.253h3.84c1.169 0 2.25.088 3.235.747.717.508 1.166 1.235 1.166 2.136 0 .751-.265 1.527-1.254 2.153-1.292.84-3.535.956-4.948.784l-.805-.095 6.506 8.158h7.55l-6.176-6.81c1.107-.122 2.883-.56 3.958-1.253 1.287-.873 1.948-2.16 1.948-3.365 0-1.345-.726-2.811-2.367-3.775C63.393.826 60.726.795 58.266.795H46.128v16.341Zm52.76 0V10.24h8.815V7.78h-8.815V3.253h9.534V.795H98.922v16.341ZM123.92.795h-6.568v16.34h16.194V14.65h-9.627zm36.604 2.459h7.045v13.883h6.567V3.254h7.04V.794h-20.652zM146.617.318c-3.058 0-7.347.691-10.225 2.753-2.283 1.62-3.358 3.935-3.358 5.906 0 1.953 1.075 4.263 3.358 5.88 2.878 2.035 7.167 2.728 10.225 2.728 3.055 0 7.37-.693 10.246-2.727 2.28-1.618 3.332-3.928 3.332-5.88 0-1.972-1.051-4.287-3.332-5.907-2.876-2.062-7.19-2.725-10.246-2.753m0 15.289c-1.622 0-3.542-.36-4.952-2.131-1.168-1.436-1.378-3.09-1.378-4.499 0-1.466.21-3.088 1.378-4.526 1.41-1.8 3.33-2.157 4.952-2.157 1.643 0 3.539.356 4.97 2.157 1.171 1.438 1.383 3.06 1.383 4.526 0 1.408-.212 3.063-1.382 4.499-1.432 1.77-3.328 2.13-4.971 2.13M83.075.318c-3.055 0-7.342.691-10.218 2.753-2.285 1.62-3.365 3.935-3.365 5.906 0 1.953 1.08 4.263 3.365 5.88 2.876 2.035 7.163 2.728 10.218 2.728s7.375-.693 10.255-2.727c2.276-1.618 3.328-3.928 3.328-5.88 0-1.972-1.052-4.287-3.328-5.907C90.45 1.01 86.13.346 83.075.318m0 15.289c-1.62 0-3.54-.36-4.945-2.131-1.168-1.436-1.382-3.09-1.382-4.499 0-1.466.214-3.088 1.382-4.526 1.406-1.8 3.326-2.157 4.945-2.157 1.644 0 3.54.356 4.976 2.157 1.17 1.438 1.38 3.06 1.38 4.526 0 1.408-.21 3.063-1.38 4.499-1.436 1.77-3.332 2.13-4.976 2.13m-79.308 1.53 2.579-4.746h9.087l2.785 4.746h7.342L15.612.796H9.524L.5 17.135Zm3.777-6.958 3.088-5.694h.093l3.354 5.694z" style="stroke-width:2.15945"/><path d="m100.843 28.22-1.174 4.32c-.142.174-.368.318-.573.426-.313.17-.626.263-.917.263-.285 0-.54-.117-.659-.29-.083-.145-.169-.373-.054-.776l1.06-3.944h-1.09l-1.027 3.805c-.087.342-.23.942.083 1.401.174.26.546.546 1.313.546a2.5 2.5 0 0 0 1.038-.23c.253-.149.538-.316.769-.49l-.17.606h.972l1.521-5.638zm6.967.652a2 2 0 0 0-.634-.543c-.365-.196-.768-.23-1.118-.23-.37 0-.83.034-1.34.345-.374.261-.83.657-.999 1.318-.153.487-.09.856.084 1.087.196.26.54.398.831.485l.54.176c.284.059.573.059.743.281a.6.6 0 0 1 .117.546 1.17 1.17 0 0 1-.402.545c-.198.174-.544.32-1.028.32-.314 0-.573-.065-.83-.207-.227-.17-.4-.315-.49-.454l-.718.66c.519.68 1.153.771 1.778.771.427 0 1.288-.056 2.004-.602.399-.34.687-.775.804-1.146.057-.292.115-.714-.028-.977-.203-.398-.659-.567-.92-.63l-.4-.112c-.511-.115-.742-.172-.859-.317-.111-.081-.2-.254-.111-.598.052-.14.172-.374.395-.546.287-.172.55-.2.75-.2.255 0 .486.061.686.2.172.115.313.26.43.405zm5.87 0a1.57 1.57 0 0 0-.628-.543c-.343-.196-.75-.23-1.089-.23-.394 0-.83.034-1.346.345-.373.261-.83.657-1.032 1.318-.106.487-.054.856.116 1.087.202.26.577.398.83.485l.512.176c.287.059.578.059.776.281.087.119.172.263.087.546-.087.258-.256.428-.374.545-.202.174-.54.32-1.03.32-.314 0-.57-.065-.858-.207a2.6 2.6 0 0 1-.487-.454l-.717.66c.552.68 1.178.771 1.804.771.434 0 1.288-.056 2.006-.602.4-.34.687-.775.772-1.146.087-.292.113-.714-.027-.977-.173-.398-.632-.567-.915-.63l-.403-.112c-.49-.115-.713-.172-.833-.317-.11-.081-.195-.254-.11-.598.056-.14.14-.374.4-.546s.543-.2.713-.2c.29 0 .516.061.718.2.174.115.313.26.43.405zm2.1-.652-.205.74h.66l-1.314 4.897h1.084l1.518-5.638zm.687-1.861c-.092.398.143.713.518.713.4 0 .767-.315.882-.713.111-.376-.115-.69-.517-.69-.365 0-.768.314-.883.69m9.945 7.497 1.203-4.437c.38-.317.95-.574 1.462-.574.373 0 .576.14.658.313.174.26.088.687.028.86l-1.03 3.838h1.09l1.028-3.75c.118-.461.17-1.004-.085-1.461-.23-.37-.656-.544-1.26-.544-.368 0-.999.085-1.69.544l.117-.426h-1.75l-.197.74h.657l-1.315 4.897zm-35.805-8.128-2.204 8.129h1.23l.953-3.575h.824l1.146 3.575h1.485l-1.315-3.638c.604-.062 1.405-.344 1.889-.714.54-.402.95-.974 1.085-1.574.174-.577.092-1.174-.249-1.572-.46-.576-1.377-.631-2.038-.631h-.77zm2.036 3.629H90.84l.718-2.689h1.63c.175 0 .714 0 1 .287.171.174.315.46.197.917-.113.43-.344.774-.683 1.059a2.07 2.07 0 0 1-1.06.426m28.471 1.207c-1.142.115-2.09.572-2.403 1.748-.03.137-.06.254-.06.369v.2c.03.63.458 1.09 1.404 1.09.34 0 .683-.056 1.059-.207.033 0 .06-.021.113-.05.374-.173.656-.461.746-.547h.057l-.198.689h.976l1-3.636c.144-.575.283-1.148-.032-1.575-.26-.402-.914-.545-1.427-.545-.49 0-.918.06-1.235.143-.998.256-1.374.859-1.403 1.402l1.005.059c.08-.286.2-.487.398-.632.231-.166.574-.227 1.003-.227.232 0 .513.027.628.227.176.202.117.49.063.748l-.205.715h-.8c-.233 0-.486 0-.689.03m0 2.573c-.172.064-.344.09-.516.09-.226 0-.513-.026-.682-.26-.144-.202-.176-.402-.089-.687.058-.226.17-.458.456-.685.17-.117.402-.261.831-.313.143-.035.317-.061.518-.061h.804l-.319 1.198a2.3 2.3 0 0 1-.547.52c-.167.09-.313.172-.456.198m26.146-4.918-.199.74h.66l-1.324 4.897h1.09l1.517-5.638zm1.005-1.861c-.09.398.14.713.516.713.369 0 .77-.315.883-.713.117-.376-.113-.69-.514-.69-.369 0-.778.314-.885.69m3.145 1.861-1.515 5.637h1.09l.86-3.238c.14-.37.281-.743.485-1.028.342-.548.739-.631.972-.631.144 0 .315.026.43.143.08.086.114.253.114.459l.974-.287c.196-.57 0-.889-.34-1.056a1.3 1.3 0 0 0-.578-.118c-.63 0-1.254.342-1.689.942l.226-.824zm6.017-2.607-1.801 6.7c-.14.513-.402 1.544.89 1.544h.628l.2-.744h-.311c-.545 0-.404-.461-.378-.572l1.863-6.928Zm2.944 2.607-.191.74h.66l-1.353 4.897h1.117l1.52-5.638zm1.005-1.861c-.089.398.144.713.516.713.404 0 .774-.315.887-.713.087-.376-.144-.69-.511-.69-.405 0-.776.314-.892.69m2.998 7.497 1.172-4.437c.398-.317.973-.574 1.486-.574.372 0 .578.14.66.313.2.26.058.687.029.86l-1.028 3.838h1.085l1.028-3.75c.117-.461.174-1.004-.085-1.461-.223-.37-.66-.544-1.257-.544-.4 0-.976.085-1.689.544l.115-.426h-1.746l-.202.74h.656l-1.313 4.897zm16.802-4.984c-.224-.34-.51-.513-.601-.543-.372-.196-.738-.23-1.085-.23-.406 0-.832.034-1.343.345-.403.261-.86.657-1.03 1.318-.15.487-.06.856.109 1.087.172.26.546.398.805.485l.544.176c.282.059.576.059.737.281.122.119.178.263.122.546a1.14 1.14 0 0 1-.403.545c-.174.174-.517.32-1.03.32-.322 0-.548-.065-.833-.207-.228-.17-.394-.315-.483-.454l-.717.66c.515.68 1.148.771 1.776.771.459 0 1.287-.056 2.003-.602.403-.34.683-.775.802-1.146.087-.292.118-.714-.023-.977-.177-.398-.666-.567-.918-.63l-.405-.112c-.48-.115-.715-.172-.858-.317-.088-.081-.198-.254-.114-.598.057-.14.137-.374.403-.546.28-.172.569-.2.743-.2.287 0 .483.061.71.2.147.115.288.26.404.405zm-43.576 4.984h1.23l1.23-1.977h3.12l.143 1.977h1.405l-.772-8.129h-1.002zm3.034-2.921 2.203-3.462h.025l.264 3.462zm30.962.347h3.4l.09-.374c.227-.751.453-1.518.059-2.148-.346-.54-1.032-.659-1.522-.659-.723 0-1.419.258-1.973.745-.746.659-1.056 1.544-1.228 2.29-.172.601-.346 1.516.111 2.177.43.568 1.207.659 1.746.659.44 0 .845-.063 1.264-.207.226-.082.511-.197.769-.34l-.167-.66a3.5 3.5 0 0 1-.748.264c-.27.047-.52.108-.805.108-.426 0-.8-.142-.996-.396-.317-.374-.174-.95-.086-1.23zm.168-.748.058-.252c.118-.292.257-.75.627-1.066a1.4 1.4 0 0 1 .948-.37c.287 0 .57.085.716.257.254.346.14.831.032 1.203l-.063.228z" style="stroke-width:1.73885"/></g></svg>