<svg xmlns="http://www.w3.org/2000/svg" width="170.069" height="62.477"><g style="font-style:normal;font-variant:normal;font-weight:400;font-stretch:normal;font-size:80.99822998px;line-height:125%;font-family:sans-serif;-inkscape-font-specification:sans-serif;letter-spacing:0;word-spacing:0;fill:#003392;fill-opacity:1;stroke:none;stroke-width:1px;stroke-linecap:butt;stroke-linejoin:miter;stroke-opacity:1"><path d="M75.578 78.725q0 6.41-1.424 11.198-1.385 4.748-4.59 7.913c-2.125 2.096-4.62 3.849-7.122 5.07-2.73 1.332-7.732 2.003-11.345 1.911-3.625-.093-9.177-.737-12.275-1.943-2.712-1.057-5.167-2.98-7.04-4.878q-3.205-3.245-4.63-7.834-1.384-4.59-1.384-11.277l.029-36.214 10.262.002v35.649q0 4.786.633 7.557a15.1 15.1 0 0 0 2.216 5.025q1.74 2.572 4.708 3.877 3.007 1.305 7.201 1.306 4.233 0 7.201-1.266 2.967-1.305 4.748-3.917 1.543-2.255 2.176-5.144.672-2.928.673-7.24V42.673l9.963.008zM199.197 67.98c-1.206-.074-3.49 0-5.461.094-4.49.212-9.776 3.232-10.208 7.385l.043 27.885-9.813.005-.057-44.95 9.856.02.028 6.361c3.568-4.748 6.458-6.482 11.723-7.13 1.196-.147 2.444-.115 3.831.107zm-33.273 35.368-10.675-.005.002-44.95 10.686.005zm.004-50.388-10.675-.012-.003-10.307h10.68zm-28.287 37.099-.082-8.02-5.311.393c-10.461.774-15.581 3.031-15.76 8.751-.067 2.12.538 3.453 2.179 4.707 1.684 1.183 3.032 1.436 5.895 1.436 2.611 0 4.906-.578 7.349-1.734 2.443-1.155 4.326-3.552 5.73-5.533m.025 7.765c-3.003 4.702-8.32 7.296-15.147 6.854-4.426-.287-8.665-1.17-11.528-3.509-2.864-2.366-4.785-6.658-4.528-10.364.862-12.383 11.292-13.737 27.574-14.788l3.5-.227c0-3.136-.284-5.52-.62-6.923-1.458-3.848-5.591-4.877-8.138-5.065-6.24-.284-10.02 3.193-10.602 8.107l-9.481-.113c.59-8.997 7.366-15.079 19.635-15.079 5.727 0 9.96 1.906 13.16 4.135 3.201 2.228 5.149 7.168 5.149 13.69l-.029 28.793-8.872.003zm-34.46 5.694c-1.595.368-3.695.52-5.739.477-3.104-.066-5.178-.971-6.623-2.121-1.446-1.178-2.41-2.78-3.038-4.53-.529-1.47-1.015-4.25-1.015-7.447V65.53l-6.642-.023.058-7.244 6.526-.033V46.416l9.924.028v11.842l7.225.057c.232 1.47.065 7.131.065 7.131h-7.32l.174 24.166c.022 3.057.507 4.215 1.23 5.056q1.123 1.22 3.051 1.22c1.312 0 .948.058 2.153-.167z" style="fill:#003392;fill-opacity:1" transform="matrix(.98062 0 0 1.0047 -25.268 -42.841)"/></g></svg>