<svg xmlns="http://www.w3.org/2000/svg" width="200" height="28" fill="none"><path fill="url(#a)" d="M116.69.667h-13.379L90.879 17.733 97.636 27c.135.2.405.2.54 0l18.852-25.8c.067-.2-.068-.533-.338-.533"/><path fill="#E62731" d="M81.689.667c-7.23 0-11.419 8.066-7.23 13.866l9.054 12.4c.135.2.406.2.54 0L103.244.6H81.689z"/><path fill="#46484D" d="M66.419 3.6c-1.42-1-2.973-1.8-4.797-2.2a20.4 20.4 0 0 0-5.27-.667h-8.987c-.27 0-.54.2-.54.534v25.4a.53.53 0 0 0 .54.533h8.986c1.757 0 3.514-.267 5.27-.733 1.757-.534 3.379-1.334 4.798-2.4 1.419-1.067 2.567-2.467 3.446-4.134.878-1.666 1.351-3.666 1.351-6 0-2.466-.473-4.6-1.351-6.266C68.986 6 67.838 4.6 66.419 3.6m-1.284 14.733c-.608 1.2-1.419 2.067-2.432 2.8-1.014.667-2.095 1.2-3.379 1.467-1.216.267-2.5.4-3.716.4h-3.986V4.733h3.986c1.216 0 2.5.134 3.716.4 1.216.267 2.365.734 3.379 1.4q1.52 1 2.432 2.8c.608 1.2.946 2.734.946 4.6 0 1.734-.338 3.267-.946 4.4M146.891.667h-3.716c-.27 0-.54.2-.54.533v19.267h-.068l-11.216-17.8c-.743-1.2-2.162-2-3.581-2h-3.446a.53.53 0 0 0-.541.533v25.4a.53.53 0 0 0 .541.533h3.716c.27 0 .541-.2.541-.533V6.667h.067l11.487 18.4c.743 1.266 2.162 2 3.581 2h3.175a.53.53 0 0 0 .541-.534v-25.4c-.068-.2-.27-.466-.541-.466M116.622 4.8l-4.054 5.533c-.203.267-.27.534-.27.867v15.333a.53.53 0 0 0 .54.534h3.717c.27 0 .54-.2.54-.534V4.867c-.067-.134-.338-.2-.473-.067m59.594 7.267h-6.689c-.203 0-.473.133-.608.266l-2.297 3c-.203.267 0 .6.27.6h5.202v6.734c-1.486.6-3.31.933-5.337.933-1.487 0-2.838-.267-3.987-.733a8.7 8.7 0 0 1-1.351-.734c-.608-.4-1.149-.8-1.622-1.333-.811-.867-1.419-1.867-1.892-3.067s-.675-2.466-.675-3.933c0-1.267.202-2.4.54-3.467.068-.133.068-.2.135-.333.473-1.2 1.081-2.2 1.892-3.067.811-.866 1.757-1.533 2.906-2.066a10.2 10.2 0 0 1 3.851-.734c1.419 0 2.77.267 3.986.8.879.4 1.69.8 2.23 1.334.203.2.608.133.743-.067l2.23-2.933c.203-.267.135-.6-.135-.734-.946-.666-2.027-1.2-3.311-1.6-1.757-.6-3.716-.933-5.878-.933-2.095 0-3.987.333-5.743 1s-3.311 1.6-4.595 2.733c-.676.6-1.284 1.334-1.824 2.067a25 25 0 0 0-1.284 2.267c-.743 1.733-1.149 3.6-1.149 5.733 0 .4 0 .8.068 1.133.135 1.6.473 3.134 1.013 4.534.744 1.733 1.689 3.2 3.041 4.4 1.284 1.2 2.838 2.2 4.594 2.866 1.825.667 3.784 1 5.946 1 2.095 0 3.987-.2 5.608-.533 1.487-.333 2.838-.733 4.055-1.333.27-.134.405-.4.405-.667V12.467c.203-.2 0-.4-.338-.4m-162.567 3.2c1.554-.467 2.77-1.067 3.919-2.267 1.08-1.2 1.621-2.8 1.621-4.667 0-1.4-.27-2.6-.81-3.533-.541-1-1.284-1.733-2.23-2.333s-1.96-1-3.176-1.267A17 17 0 0 0 9.324.8H.541A.53.53 0 0 0 0 1.333v25.4a.53.53 0 0 0 .54.534h3.717c.27 0 .54-.2.54-.534V16.067H8.92l5.81 10.8c.136.266.406.4.676.4h4.054c.338 0 .541-.334.406-.667zm-1.081-3.934a5.3 5.3 0 0 1-1.825.534C10.068 12 9.392 12 8.716 12H4.797V4.6h4.325c.608 0 1.216.067 1.892.133.675.134 1.216.267 1.689.534.473.266.946.666 1.216 1.133.338.467.473 1.067.473 1.8 0 .8-.203 1.467-.54 1.933-.338.534-.744.934-1.284 1.2m186.215 4.8A6.5 6.5 0 0 0 196.891 14c-.743-.6-1.621-1-2.567-1.4-.946-.333-1.824-.667-2.635-.933-.068 0-.203-.067-.271-.067-.135-.067-.27-.067-.337-.133-.541-.134-1.014-.334-1.419-.467a6.1 6.1 0 0 1-1.622-.8 2.55 2.55 0 0 1-1.013-1.067c-.271-.4-.406-.933-.406-1.533 0-.667.135-1.2.406-1.667.27-.466.675-.8 1.148-1.133a10 10 0 0 1 1.487-.667 7 7 0 0 1 1.689-.2c.946 0 1.892.2 2.77.667a4.3 4.3 0 0 1 .946.533c.27.134.541.134.743-.133l1.96-2.667c.203-.266.135-.6-.135-.733-.608-.333-1.217-.6-1.892-.867-1.419-.466-2.77-.733-4.122-.733-1.216 0-2.432.133-3.581.467-1.149.333-2.23.8-3.108 1.4q-1.419.999-2.23 2.4c-.54 1-.878 2.133-.878 3.466 0 1.267.203 2.267.608 3.134.405.866.946 1.533 1.554 2.133.676.6 1.351 1 2.162 1.4q1.115.5 2.23.8c.068 0 .135.067.203.067h.067c.811.266 1.622.533 2.365.8.743.266 1.419.533 1.96.866.54.334 1.013.734 1.351 1.2.338.467.473 1.067.473 1.734q0 1.1-.406 1.8c-.27.466-.675.866-1.148 1.2s-1.014.533-1.554.666a7.8 7.8 0 0 1-1.689.2q-1.623 0-3.244-.8c-.878-.4-1.756-1-2.229-1.4-.203-.2-.609-.133-.744.067l-2.027 2.733c-.135.2-.135.534.068.734.54.466 1.689 1.266 2.973 1.733 1.689.6 3.378.933 5.135.933 1.284 0 2.568-.2 3.716-.533 1.216-.333 2.23-.867 3.108-1.6a7.2 7.2 0 0 0 2.095-2.6c.54-1.067.811-2.267.811-3.733-.135-1.2-.406-2.267-.879-3.134m-157.094 6.8H28.58v-7.466h11.756c.27 0 .54-.2.54-.534V12a.53.53 0 0 0-.54-.533H28.58V4.733h13.11c.27 0 .54-.2.54-.533V1.133A.53.53 0 0 0 41.69.6H28.31c-2.5 0-4.527 2-4.527 4.467V22.6c0 2.467 2.027 4.467 4.527 4.467h13.38c.27 0 .54-.2.54-.534V23.4c0-.2-.27-.467-.54-.467"/><defs><linearGradient id="a" x1="90.858" x2="117.033" y1="13.9" y2="13.9" gradientUnits="userSpaceOnUse"><stop offset="0" stop-color="#B02224"/><stop offset=".072" stop-color="#B72226"/><stop offset=".309" stop-color="#CC252B"/><stop offset=".544" stop-color="#DA262F"/><stop offset=".776" stop-color="#E32631"/><stop offset="1" stop-color="#E62731"/></linearGradient></defs></svg>