<svg height="240.442301" viewBox="0 0 548.45 316.83" width="415.900196" xmlns="http://www.w3.org/2000/svg" xmlns:xlink="http://www.w3.org/1999/xlink"><linearGradient id="a" gradientUnits="userSpaceOnUse" x1="282.54" x2="242.33" y1="241.07" y2="51.89"><stop offset="0" stop-color="#fff"/><stop offset="0" stop-color="#bbccfd"/><stop offset="1" stop-color="#215af9"/></linearGradient><linearGradient id="b" gradientUnits="userSpaceOnUse" x1="283.92" x2="283.92" y1="286.95" y2="163.35"><stop offset="0" stop-color="#696e72"/><stop offset="1" stop-color="#2d3135"/></linearGradient><path d="m76.48 115.11 176.36 132.27 161.02-231.95z" fill="url(#a)"/><path d="m33.17 166.49h15.64v80.89h-15.64zm38.38 0h33.77c26 0 35.31 10 35.31 28.35 0 13.29-6.63 23.06-16.48 26.29l20.38 26.25h-18.38l-18.08-23.63h-22.51v23.63h-14zm29.35 44.51c15.54 0 25.73-3 25.73-15.24 0-12.49-9.52-15-24.31-15h-16.76v30.24zm259.16-44.46h33.76c26 0 35.31 10 35.31 28.35 0 13.29-6.63 23.06-16.48 26.29l20.35 26.2h-18.34l-18.09-23.63h-22.51v23.63h-14zm29.34 44.46c15.55 0 25.74-3 25.74-15.24 0-12.49-9.53-15-24.32-15h-16.76v30.24zm-162.51-54.22 26.11 90.6h-15.64l-4.12-15.06-48.64.1-11.34 15h-18.13zm2.85 62.86-9.46-34-26 34zm46.75 27.74h61.88v-12.75h-47.7v-22.36h39.33v-12.79h-39.33v-20.13h45.84v-12.86h-60zm-235.95 25.34h4.21l7.39 15.68h-4l-1.19-2.57h-8.68l-1.16 2.57h-3.94zm4.88 9.86-2.87-6.18-2.8 6.18zm10.84 5.82h3.58v-15.68h-3.58zm10.74-15.68h7.42c4.21 0 6.63 2.09 6.63 5.78a5.09 5.09 0 0 1 -2.85 4.89l3.63 5h-4.3l-3-4.25h-3.93v4.25h-3.6zm6.84 8.51c2.41 0 3.44-1 3.44-2.48 0-1.77-1.29-2.44-3.27-2.44h-3.41v4.92zm13.37 7.17h12.19v-3.58h-8.6v-12.1h-3.58zm17.11 0h3.59v-15.68h-3.59zm23.39 0h3.05v-15.68h-3.5v9.93l-9.14-9.93h-3v15.68h3.49v-9.92zm10.21 0h13.08v-3.4h-9.5v-3h7.5v-3.25h-7.48v-2.69h9.27v-3.36h-12.86zm32.08-11.4v-3.5a19 19 0 0 0 -7-1.19c-4 0-6.61 1.68-6.61 4.69s2.6 4.25 6.1 5 4.5.92 4.5 2.08c0 .83-.85 1.48-2.87 1.48a20.34 20.34 0 0 1 -8-1.61v3.54a17.46 17.46 0 0 0 7.51 1.43c4.43 0 7.12-1.86 7.12-5 0-2.82-1.95-4.1-5.75-5-3.41-.79-4.84-1-4.84-2.06 0-.72.71-1.15 3.27-1.15a19.48 19.48 0 0 1 6.57 1.29m364.66-70c0 25.31-17.79 42.76-45.41 42.76s-45.42-17.45-45.42-42.76 17.8-42.75 45.42-42.75 45.42 17.38 45.42 42.68zm-14.83 0c0-17.53-10.87-29.9-30.58-29.9s-30.59 12.37-30.59 29.9 10.88 29.91 30.59 29.91 30.59-12.44 30.59-29.98z" fill="url(#b)"/></svg>