<svg xmlns="http://www.w3.org/2000/svg" xml:space="preserve" width="400.101" height="65.371"><path d="M0 0c-11.653 0-20.31-8.695-20.31-19.406v-.14c0-10.712 8.593-19.277 20.182-19.277 11.658 0 20.312 8.699 20.312 19.417v.135C20.184-8.56 11.593 0 0 0m9.715-19.546c0-5.496-3.635-10.156-9.715-10.156-5.857 0-9.833 4.796-9.833 10.296v.135c0 5.489 3.635 10.16 9.705 10.16 5.861 0 9.843-4.796 9.843-10.295z" style="fill:#0b96d4;fill-opacity:1;fill-rule:evenodd;stroke:none" transform="matrix(1.09321 0 0 -1.09321 62.574 22.62)"/><path d="M0 0h-16.634s4.957 17.214 5.126 17.698c.169.482.796 2.302 2.319 2.302h6.881c1.195 0 2.307-.959 2.307-2.302zm4.815 30.114h-19.544c-3.962 0-5.087-4.155-5.55-5.564C-20.744 23.143-27.687 0-27.687 0h-1.778a4.64 4.64 0 0 1-4.639-4.652c0-2.551 2.084-4.621 4.638-4.621H4.815c2.437 0 5.552 1.898 5.552 5.533v28.29c0 3.633-3.115 5.564-5.552 5.564" style="fill:#0b96d4;fill-opacity:1;fill-rule:evenodd;stroke:none" transform="matrix(1.09321 0 0 -1.09321 218.718 54.907)"/><path d="M0 0c-5.372-1.504-11.001 1.811-12.569 7.403-1.566 5.619 1.504 11.371 6.876 12.871 5.373 1.502 10.984-1.811 12.55-7.403C8.445 7.25 5.356 1.5 0 0m17.222 15.769C14.203 26.483 2.789 32.683-8.292 29.583a20.3 20.3 0 0 1-4.918-2.109c-.026 1.425-.134 3.715 1.561 5.423 2.385 2.388 7.134 3.849 7.715 4.009 1.709.457 7.112 2.021 11.128 3.104 4.001 1.08 4.571 4.077 3.966 6.318-.609 2.245-3.585 3.614-6.451 2.847-2.849-.771-7.388-1.972-11.865-3.207-4.495-1.23-8.341-3.584-11.025-6.034-2.669-2.452-4.474-5.336-5.172-9.638-1.199-7.34-.664-16.682-.257-21.341.064-1.475.28-2.97.694-4.452C-19.911-6.238-8.491-12.408 2.599-9.309 13.681-6.205 20.227 5.024 17.222 15.769" style="fill:#0b96d4;fill-opacity:1;fill-rule:evenodd;stroke:none" transform="matrix(1.09321 0 0 -1.09321 114.717 53.993)"/><path d="M0 0c-.022 0-.038-.005-.063-.005L-.058 0h-22.406l.004-.004c-.024 0-.04.004-.062.004-3.032 0-5.491-2.482-5.491-5.506v-28.408c0-3.023 2.459-5.476 5.491-5.476 3.022 0 5.489 2.453 5.489 5.476v21.499c0 1.342 1.114 2.302 2.291 2.302h6.961c1.177 0 2.292-.96 2.292-2.302v-21.499c0-3.023 2.465-5.476 5.489-5.476 3.028 0 5.491 2.453 5.491 5.476v28.408C5.491-2.482 3.028 0 0 0" style="fill:#0b96d4;fill-opacity:1;fill-rule:evenodd;stroke:none" transform="matrix(1.09321 0 0 -1.09321 30.624 22.31)"/><path d="M0 0c0 3.796-1.13 8.359-4.921 12.157-3.116 3.075-7.687 5.104-14.073 5.104-6.221 0-11.133-2.029-14.594-5.44-3.443-3.462-5.614-8.446-5.614-14.308 0-6.081 2.081-11.23 5.784-14.978 3.635-3.631 8.98-5.662 15.628-5.662 3.804 0 7.684.423 11.232 1.859 3.273 1.268 4.912 2.873 4.912 5.185 0 2.446-1.809 4.477-4.225 4.477-2.858 0-5.1-2.617-11.148-2.617-5.593 0-9.143 2.783-10.179 7.935h21.587C-2.081-6.288 0-4.004 0 0m-27.282 1.099c.775 4.472 3.617 7.343 8.372 7.343 4.668 0 7.511-3.292 7.855-7.343z" style="fill:#0b96d4;fill-opacity:1;fill-rule:evenodd;stroke:none" transform="matrix(1.09321 0 0 -1.09321 180.943 39.783)"/><path d="M0 0c-.124 1.6-1.348 6.741-5.019 10.42-3.305 3.445-7.669 5.551-13.723 5.551-3.457 0-5.375-.013-8.605-1.374-2.974-1.202-4.462-2.725-4.462-4.917 0-2.323 1.648-4.245 3.84-4.245 2.597 0 2.54 1.913 8.036 1.913 4.477 0 7.506-2.048 8.82-5.858-3.382 1.584-7.11 1.66-7.11 1.66S-31.258 4.322-34.074-7.144c-1.445-7.844 3.098-14.729 12.628-15.926 8.334-.545 12.424 2.889 12.424 2.889a4.96 4.96 0 0 1 4.282-2.453 4.97 4.97 0 0 1 4.972 4.968C.232-17.623.312-3.896 0 0m-17.505-16.08c-4.177 0-7.576 2.666-7.576 5.949s3.399 5.944 7.576 5.944c4.187 0 7.582-2.661 7.582-5.944s-3.395-5.949-7.582-5.949" style="fill:#0b96d4;fill-opacity:1;fill-rule:evenodd;stroke:none" transform="matrix(1.09321 0 0 -1.09321 271.704 39.545)"/><path d="M0 0c0-8.823-7.145-15.946-15.954-15.946-8.803 0-15.942 7.123-15.942 15.946 0 8.82 7.139 15.947 15.942 15.947C-7.145 15.947 0 8.82 0 0" style="fill:#0b96d4;fill-opacity:1;fill-rule:evenodd;stroke:none" transform="matrix(1.09321 0 0 -1.09321 316.432 47.485)"/><path d="M0 0c0-8.823-7.146-15.946-15.943-15.946-8.807 0-15.948 7.123-15.948 15.946 0 8.82 7.141 15.947 15.948 15.947C-7.146 15.947 0 8.82 0 0" style="fill:#76b2e2;fill-opacity:1;fill-rule:evenodd;stroke:none" transform="matrix(1.09321 0 0 -1.09321 358.27 47.485)"/><path d="M0 0c0-8.823-7.145-15.946-15.947-15.946-8.803 0-15.949 7.123-15.949 15.946 0 8.82 7.146 15.947 15.949 15.947C-7.145 15.947 0 8.82 0 0" style="fill:#a4c8eb;fill-opacity:1;fill-rule:evenodd;stroke:none" transform="matrix(1.09321 0 0 -1.09321 400.1 47.485)"/></svg>