<svg xmlns="http://www.w3.org/2000/svg" xmlns:xlink="http://www.w3.org/1999/xlink" width="334.119" height="53.048" viewBox="0 0 334.119 53.048"><defs><path id="a" d="M0 0h334.12v53.048H0z"/></defs><clipPath id="b"><use xlink:href="#a" overflow="visible"/></clipPath><path clip-path="url(#b)" fill="#e3132c" d="M43.096 28.49c12.594-.45 20.242-5.847 20.242-12.2 0-6.772-8.334-12.26-22.53-12.26h-2.04L42.948 0l-6.21.024L26.5 4.03H10.19C4.46 4.03 1.275 5.45 0 8.22h33.525c9.244 0 15.457 1.416 15.457 7.863 0 6.948-7.47 8.3-15.457 8.3H18.47l13.327 14.495c11.296 12.03 21.89 14.17 35.042 14.17L43.095 28.49z"/><path clip-path="url(#b)" fill="#e3132c" d="M105.336 31.745c-2.524 0-4.566-.307-6.12-.676V17.096c1.612-.196 3.694-.365 6.12-.365 5.83 0 9.23 2.38 9.23 7.337 0 5.05-3.642 7.675-9.23 7.675m.875-18.025c-4.906 0-9.667.593-14.77.788v28.07h7.775v-8.187c2.222.21 4.668.366 6.996.366 10.447 0 17.054-3.108 17.054-10.688S116.657 13.72 106.21 13.72M149.888 40.296c-6.17 0-10.446-4.566-10.446-11.807 0-7.19 4.276-11.904 10.446-11.904 6.22 0 10.445 4.713 10.445 11.903s-4.226 11.806-10.445 11.806m0-26.722c-11.515 0-19.142 6.073-19.142 14.915 0 8.842 7.627 14.818 19.142 14.818s19.143-5.977 19.143-14.82c0-8.84-7.627-14.914-19.142-14.914"/><path fill="#e3132c" d="M282.377 14.477l-17.247 22.22v-22.22h-7.775v28.228h7.775l17.247-22.268v22.268h7.773V14.477h-3.158"/><g><defs><path id="c" d="M0 0h334.12v53.048H0z"/></defs><clipPath id="d"><use xlink:href="#c" overflow="visible"/></clipPath><path clip-path="url(#d)" fill="#e3132c" d="M197.55 16.684c6.023 0 9.62 3.255 9.62 3.255l1.602-4.18s-4.518-2.186-12.194-2.186c-11.077 0-18.85 6.074-18.85 14.916s7.286 14.817 19.335 14.817c7.386 0 11.66-2.332 11.66-2.332v-4.493s-3.595 3.448-10.834 3.448c-7.386 0-11.466-4.3-11.466-11.44 0-7.093 4.177-11.806 11.125-11.806M319.106 29.85c-5.053 0-8.113-2.43-8.113-6.8 0-4.276 3.06-6.317 8.113-6.317 2.743 0 5.297.237 7.24.488v12.63h-7.24zm-.875-16.13c-9.424 0-15.935 2.38-15.935 9.377 0 4.624 2.644 7.35 7.29 8.672l-10.35 11.35h.97c7.094 0 10.592-1.507 15.16-7.045l2.713-3.313c.052 0 .1.003.152.003h8.114v9.813h7.773V14.485c-6.557-.194-10.978-.765-15.886-.765M235.396 16.684c6.023 0 9.618 3.255 9.618 3.255l1.604-4.18s-4.52-2.186-12.195-2.186c-11.077 0-18.85 6.074-18.85 14.916s7.287 14.817 19.336 14.817c7.384 0 11.66-2.332 11.66-2.332v-4.493s-3.597 3.448-10.835 3.448c-7.386 0-11.467-4.3-11.467-11.44.002-7.093 4.18-11.806 11.128-11.806"/></g></svg>